<svg version="1.2" xmlns="http://www.w3.org/2000/svg" viewBox="0 0 24 24" width="24" height="24">
	<title>light green-svg</title>
	<style>
		.s0 { fill: #eb8028 } 
	</style>
	<path id="Layer" fill-rule="evenodd" class="s0" d="m12 4.7c3.6 0 6.2 2.3 6.2 5.6-0.1 2-0.9 3.9-2.5 5.2l-1 3.6v1.2c0 1-0.8 1.7-1.7 1.7h-2c-0.9 0-1.7-0.7-1.7-1.7v-1.2l-1-3.6c-1.6-1.3-2.4-3.2-2.5-5.2 0-3.3 2.6-5.6 6.2-5.6zm2 14.6h-4v0.7h4zm-0.1 1.3h-3.8c0.1 0.4 0.5 0.7 0.9 0.7h2c0.4 0 0.8-0.3 0.9-0.7zm1-4.4c-1.8 1-4 1-5.7 0l0.7 2.4h4.2zm-3.5-3.8v3.9q0.6 0.1 1.3 0v-3.9q0-0.1 0-0.1l-0.5 0.3c-0.1 0.1-0.2 0.1-0.4 0l-0.4-0.3q0 0 0 0.1zm-4.9-2c0 2.7 1.9 5.1 4.2 5.8v-3.7l-0.2 0.1c-0.2 0.1-0.3 0.1-0.4 0l-0.9-0.6c-0.2-0.1-0.2-0.3-0.1-0.5 0.1-0.1 0.3-0.2 0.5 0l0.7 0.5 0.7-0.5c0.1-0.1 0.2-0.1 0.3 0l0.7 0.5 0.7-0.5c0.1-0.1 0.3-0.1 0.4 0l0.7 0.5 0.7-0.5q0.2-0.2 0.3-0.1 0.2 0.1 0.2 0.3 0.1 0.2-0.1 0.3l-0.9 0.6c-0.1 0.1-0.3 0.1-0.4 0l-0.2-0.1v3.7c2.3-0.7 4.1-3.1 4.1-5.8 0-2.9-2.3-5-5.5-5-3.1 0-5.5 2.1-5.5 5z"/>
	<path id="Layer" class="s0" d="m7.3 11.7c0.1 0.2 0.2 0.3 0.4 0.3q0 0 0 0 0.2 0 0.2-0.2 0.1-0.1 0.1-0.2c-0.3-1.2-0.1-2.5 0.7-3.6 0.7-0.8 1.8-1.3 3-1.3 0.2 0 0.3-0.2 0.3-0.4 0-0.2-0.1-0.3-0.3-0.3-1.4 0-2.7 0.6-3.5 1.6-0.9 1.2-1.2 2.7-0.9 4.1z"/>
	<path id="Layer" class="s0" d="m12.7 6.7h0.3c0.2 0 0.3-0.2 0.3-0.4 0-0.2-0.1-0.3-0.3-0.3h-0.3c-0.2 0-0.4 0.1-0.4 0.3 0 0.2 0.2 0.4 0.4 0.4z"/>
	<path id="Layer" class="s0" d="m12.3 3.7v-1.4c0-0.2-0.1-0.3-0.3-0.3-0.2 0-0.3 0.1-0.3 0.3v1.4c0 0.2 0.1 0.3 0.3 0.3 0.2 0 0.3-0.1 0.3-0.3z"/>
	<path id="Layer" class="s0" d="m17.1 17.1c-0.1 0.1-0.1 0.3 0 0.5l1 1c0.1 0.1 0.3 0.1 0.5 0 0.1-0.2 0.1-0.4 0-0.5l-1-1c-0.2-0.1-0.4-0.1-0.5 0z"/>
	<path id="Layer" class="s0" d="m4.6 4.1c-0.2-0.1-0.4-0.1-0.5 0-0.1 0.1-0.1 0.3 0 0.5l1 1c0.1 0.1 0.3 0.1 0.5 0 0.1-0.2 0.1-0.4 0-0.5z"/>
	<path id="Layer" class="s0" d="m5.4 18.6c0.2 0.1 0.4 0.1 0.5 0l1-1c0.1-0.2 0.1-0.4 0-0.5-0.1-0.1-0.3-0.1-0.5 0l-1 1c-0.1 0.1-0.1 0.3 0 0.5z"/>
	<path id="Layer" class="s0" d="m5 11.7h-1.7c-0.2 0-0.3 0.1-0.3 0.3 0 0.2 0.1 0.3 0.3 0.3h1.7c0.2 0 0.3-0.1 0.3-0.3 0-0.2-0.1-0.3-0.3-0.3z"/>
	<path id="Layer" class="s0" d="m19.4 4.1l-1 1q-0.1 0.1-0.1 0.3 0.1 0.2 0.3 0.3 0.2 0 0.3-0.1l1-1c0.1-0.2 0.1-0.4 0-0.5-0.1-0.1-0.3-0.1-0.5 0z"/>
	<path id="Layer" class="s0" d="m18.7 12c0 0.2 0.1 0.3 0.3 0.3h1.7c0.2 0 0.3-0.1 0.3-0.3 0-0.2-0.1-0.3-0.3-0.3h-1.7c-0.2 0-0.3 0.1-0.3 0.3z"/>
</svg>